<svg id="_24x24-attachment" data-name="24x24-attachment" xmlns="http://www.w3.org/2000/svg" width="16" height="16" viewBox="0 0 16 16">
  <path id="boundingbox" d="M0,0H16V16H0Z" fill="#21262c" opacity="0"/>
  <path id="attachment" d="M10.845,5.855,7.074,9.626a.667.667,0,1,0,.943.943L11.788,6.8A2,2,0,1,0,8.959,3.969L5.188,7.741A3.333,3.333,0,1,0,9.9,12.454l3.771-3.771.943.943L10.845,13.4a4.667,4.667,0,1,1-6.6-6.6L8.017,3.027A3.333,3.333,0,1,1,12.73,7.74L8.959,11.513A2,2,0,0,1,6.131,8.683L9.9,4.912l.943.943Z" transform="translate(-0.959 -0.683)" fill="#21262c"/>
</svg>
